<svg id="Layer_1" xmlns="http://www.w3.org/2000/svg" viewBox="-146 226 50 50"><style>.st0{fill:url(#SVGID_1_)}.st1{fill:url(#SVGID_2_)}</style><linearGradient id="SVGID_1_" gradientUnits="userSpaceOnUse" x1="-369.691" y1="501.531" x2="-369.621" y2="501.461" gradientTransform="matrix(721.094 0 0 -482.937 266435.688 242439.375)"><stop offset="0" stop-color="#cbced0"/><stop offset="1" stop-color="#84838b"/></linearGradient><path class="st0" d="M-121 265.2c-13.8 0-25-7.5-25-16.7s11.2-16.7 25-16.7 25 7.5 25 16.7-11.2 16.7-25 16.7zm3.8-26.9c-10.5 0-19 5.1-19 11.4 0 6.3 8.5 11.4 19 11.4s18.2-3.5 18.2-11.4c.1-7.9-7.7-11.4-18.2-11.4z"/><linearGradient id="SVGID_2_" gradientUnits="userSpaceOnUse" x1="-370.139" y1="501.781" x2="-370.069" y2="501.712" gradientTransform="matrix(398 0 0 -406.124 147188 204029.203)"><stop offset="0" stop-color="#276dc3"/><stop offset="1" stop-color="#165caa"/></linearGradient><path class="st1" d="M-107.9 257.7s1.5.5 2.4.9c.3.2.8.5 1.2.9.4.4.6.8.6.8l6 10.1h-9.6l-4.5-8.5s-.9-1.6-1.5-2c-.5-.4-.7-.5-1.1-.5h-2.3v11h-8.5v-28.2h17.1s7.8.1 7.8 7.6c-.2 7.3-7.6 7.9-7.6 7.9zm-3.7-9.5h-5.2v4.8h5.2s2.4 0 2.4-2.4c0-2.5-2.4-2.4-2.4-2.4z"/></svg>