<svg xmlns="http://www.w3.org/2000/svg" width="166.753" height="113.941"><g fill="#c40804" stroke="#000" stroke-width="0" fill-rule="evenodd"><path d="M132.456 87.651c0 11.919-17.147 12.48-17.147.653l.327-30.571c0-10.616 11.18-22.193 26.362-22.366 11.269 0 11.62-17.497 0-17.497H56.32c-8.439 0-12.213 4.98-12.05 11.183v50.71c0 11.937-17.147 11.756-17.147 0 0 0-.326-38.632-.326-51.684C26.798 15.354 36.82 0 55.798 0h85.811c16.652.163 25.305 12.91 25.141 25.325-.057 17.144-13.208 27.446-23.345 27.446-7.528 0-10.715 4.227-10.715 11.265l-.234 23.615z" stroke-width="0"/><path d="M.147 27.13L0 87.117c.892 16.868 12.892 26.497 25.973 26.824l55.726-.537c13.252 0 23.987-11.013 23.987-25.546 0-13.559-8.9-25.081-25.72-25.545-12.248 0-12.083-17.497 0-17.497h25.243c11.481 0 11.192-18.197 0-18.197l-26.932.326c-13.243 0-25.281 11.177-25.14 25.625.14 14.448 10.06 26.984 25.663 26.984 12.137 0 11.87 17.403.115 17.403H29.418c-6.7 0-11.742-3.646-11.742-11.834L17.35 27.27c0-12.974-17.203-12.771-17.203-.14z" stroke-width="0"/></g></svg>