<?xml version="1.0" encoding="utf-8"?>
<!-- Generator: Adobe Illustrator 19.0.0, SVG Export Plug-In . SVG Version: 6.00 Build 0)  -->
<svg version="1.1" id="Layer_1" xmlns="http://www.w3.org/2000/svg" xmlns:xlink="http://www.w3.org/1999/xlink" x="0px" y="0px"
	 viewBox="106 -106 512 513" style="enable-background:new 106 -106 512 513;" xml:space="preserve">
<style type="text/css">
	.st0{fill:#E2E4E6;}
	.st1{fill:#424242;}
</style>
<rect x="106" y="-106" class="st0" width="512" height="513"/>
<g>
	<path class="st1" d="M200.6,117.1h-44.7v18.3h41v15h-41v22.2h46.8v15.5h-64.5v-86.3h62.4L200.6,117.1L200.6,117.1z"/>
	<path class="st1" d="M210,188.2l21.8-32.3L211,124.5h20.4l10.7,18.5l10.4-18.5h19.9l-21,31.1l21.8,32.6h-20.8l-11-19.2l-11.1,19.2
		L210,188.2L210,188.2z"/>
	<path class="st1" d="M336.8,131.2c5.2,5.5,7.8,13.6,7.8,24.2c0,11.2-2.5,19.8-7.6,25.7c-5.1,5.9-11.6,8.8-19.7,8.8
		c-5.1,0-9.4-1.3-12.7-3.8c-1.8-1.4-3.7-3.5-5.4-6.1v33.3h-16.5v-88.9h16v9.4c1.8-2.8,3.7-5,5.8-6.6c3.7-2.8,8.2-4.3,13.3-4.3
		C325.2,122.9,331.6,125.7,336.8,131.2z M324,143.2c-2.3-3.8-5.9-5.7-11-5.7c-6.1,0-10.3,2.9-12.6,8.6c-1.2,3-1.8,6.9-1.8,11.6
		c0,7.4,2,12.6,6,15.6c2.4,1.8,5.2,2.6,8.4,2.6c4.7,0,8.3-1.8,10.7-5.4c2.5-3.6,3.7-8.4,3.7-14.3C327.4,151.3,326.2,147,324,143.2z"
		/>
	<path class="st1" d="M391.8,122.8c0.2,0,0.7,0,1.4,0.1V140c-1.1-0.1-2-0.2-2.8-0.2c-0.8,0-1.5-0.1-2-0.1c-6.7,0-11.2,2.2-13.5,6.6
		c-1.3,2.5-1.9,6.2-1.9,11.4v30.5h-16.8v-63.8h15.9v11.1c2.6-4.3,4.8-7.2,6.7-8.7c3.1-2.6,7.2-3.9,12.2-3.9
		C391.3,122.8,391.6,122.8,391.8,122.8z"/>
	<path class="st1" d="M444.6,125.6c4.5,2,8.1,5.1,11,9.4c2.6,3.8,4.3,8.2,5.1,13.2c0.4,2.9,0.6,7.2,0.5,12.7h-46.4
		c0.3,6.4,2.5,10.9,6.7,13.5c2.5,1.6,5.6,2.4,9.2,2.4c3.8,0,6.9-1,9.3-2.9c1.3-1.1,2.4-2.5,3.4-4.4h17c-0.4,3.8-2.5,7.6-6.2,11.5
		c-5.7,6.2-13.7,9.3-24,9.3c-8.5,0-16-2.6-22.5-7.9c-6.5-5.2-9.7-13.8-9.7-25.6c0-11.1,2.9-19.5,8.8-25.4s13.5-8.9,22.8-8.9
		C435.2,122.6,440.2,123.6,444.6,125.6z M419.6,140c-2.4,2.4-3.8,5.7-4.4,9.9H444c-0.3-4.4-1.8-7.8-4.4-10.1c-2.7-2.3-6-3.4-9.9-3.4
		C425.3,136.4,422,137.6,419.6,140z"/>
	<path class="st1" d="M482.7,167.8c0.4,3,1.1,5.1,2.3,6.3c2.1,2.2,5.9,3.3,11.5,3.3c3.3,0,5.9-0.5,7.9-1.5c1.9-1,2.9-2.4,2.9-4.4
		c0-1.9-0.8-3.3-2.3-4.3c-1.6-1-7.4-2.7-17.5-5c-7.3-1.8-12.4-4-15.3-6.7c-3-2.7-4.5-6.5-4.5-11.5c0-5.9,2.3-11,7-15.2
		c4.6-4.2,11.2-6.4,19.6-6.4c8,0,14.5,1.6,19.5,4.8c5,3.2,7.9,8.7,8.7,16.5h-16.8c-0.2-2.1-0.8-3.8-1.8-5.1c-1.8-2.3-5-3.4-9.4-3.4
		c-3.6,0-6.2,0.6-7.8,1.7c-1.5,1.1-2.3,2.5-2.3,4c0,1.9,0.8,3.3,2.5,4.2c1.6,0.9,7.5,2.4,17.4,4.6c6.6,1.6,11.6,3.9,15,7.1
		c3.3,3.2,4.9,7.2,4.9,12c0,6.3-2.4,11.5-7.1,15.5c-4.7,4-12,6-21.9,6c-10.1,0-17.5-2.1-22.3-6.4c-4.8-4.2-7.2-9.6-7.2-16.2h17
		V167.8z"/>
	<path class="st1" d="M549.4,167.8c0.4,3,1.1,5.1,2.3,6.3c2.1,2.2,5.9,3.3,11.5,3.3c3.3,0,5.9-0.5,7.9-1.5c1.9-1,2.9-2.4,2.9-4.4
		c0-1.9-0.8-3.3-2.3-4.3c-1.6-1-7.4-2.7-17.5-5c-7.3-1.8-12.4-4-15.3-6.7c-3-2.7-4.5-6.5-4.5-11.5c0-5.9,2.3-11,7-15.2
		c4.6-4.2,11.2-6.4,19.6-6.4c8,0,14.5,1.6,19.5,4.8c5,3.2,7.9,8.7,8.7,16.5h-16.7c-0.2-2.1-0.8-3.8-1.8-5.1c-1.8-2.3-5-3.4-9.4-3.4
		c-3.6,0-6.2,0.6-7.8,1.7c-1.5,1.1-2.3,2.5-2.3,4c0,1.9,0.8,3.3,2.5,4.2c1.6,0.9,7.5,2.4,17.4,4.6c6.6,1.6,11.6,3.9,15,7.1
		c3.3,3.2,4.9,7.2,4.9,12c0,6.3-2.4,11.5-7.1,15.5s-12,6-21.9,6c-10.1,0-17.5-2.1-22.3-6.4c-4.8-4.2-7.2-9.6-7.2-16.2h16.9V167.8z"
		/>
</g>
</svg>
