<?xml version="1.0" encoding="utf-8"?>
<!-- Generator: Adobe Illustrator 19.0.0, SVG Export Plug-In . SVG Version: 6.00 Build 0)  -->
<svg version="1.1" id="Layer_1" xmlns="http://www.w3.org/2000/svg" xmlns:xlink="http://www.w3.org/1999/xlink" x="0px" y="0px"
	 viewBox="106 80 161.5 160" style="enable-background:new 106 80 161.5 160;" xml:space="preserve">
<style type="text/css">
	.st0{fill:#FFFFFF;}
	.st1{fill:url(#SVGID_1_);}
	.st2{fill:url(#SVGID_2_);}
	.st3{fill:url(#SVGID_3_);}
</style>
<path class="st0" d="M190,203.9c-0.2-1.4,0.2-2.8-0.2-4.1c-0.4-1.1-1.2-1.2-1.7-2.2c-1.4-2.4-2.9-5.6-3-8.5
	c-0.1-2.7-1.1-5.1-1.2-7.7c-0.1-1.3,0.1-2.6,0-3.9c0-0.6-0.1-1.2-0.2-1.8c0-0.2-0.1-0.8-0.2-1.1l0.3-0.8c-0.1-0.3,2.8-0.2,3.7-0.2
	c1.5,0,2.9,0.1,4.4,0.2c3.1,0.2,5.9,0.1,8.9-0.3c6.7-1,9.7-3.8,11.3-4.9c6.1-4.4,8.9-11.6,8.9-11.6c1-2.3,1-6.3,3.2-8.1
	c2.6-2.1,6.8-2,9.8-3.3c1.7-0.8,2.9-1.2,4.7-0.8c1.3,0.3,3.6,1.8,4.2-0.3c-0.4-0.3-0.6-0.8-0.8-1.1c2.4-0.2,0-5.8-0.9-7
	c-1.5-1.7-3.9-2.5-6.6-3.2c-3.1-0.8-5.9-1.8-8.9-1.2c-5.1,1-4.7-1.9-7.7-1.9c-3.6,0-10,0.2-11.2,3.7c-0.5,1.6-1.1,1.7-1.9,3
	c-0.8,1.1,0.1,2-0.3,3.3c-0.4,1.3-1,5.7-1.6,7.3c-1,2.6-2.3,5.9-4.5,5.9c-3.2,0.4-5.7,0.5-8.3-0.4c-1.6-0.6-4.2-1.4-5.4-2
	c-5.9-2.5-6.9-5.2-6.9-5.2c-0.6-1.1-2.3-2.8-2.9-5c-0.7-2.4-1.9-4.5-2.3-5.7c-0.5-1.3-1.7-3.4-2.6-5.7c-1.2-2.9-2.8-5.1-4-6.2
	c-1.8-1.6-3.6-4.2-7.3-3.5c-0.7,0.1-3.1,0.2-5,1.8c-1.3,1.1-1.7,3.3-2.8,5.1c-0.7,1.1-1.9,4.1-3,6.7c-0.8,1.8-1.1,3.1-1.9,3.8
	c-0.6,0.5-1.4,1.2-2.4,0.8c-0.6-0.2-1.2-0.6-1.9-1.1c-0.9-0.7-2.8-4-4.1-6.5c-1.1-2.2-3.3-5.4-4.6-7.1c-1.9-2.5-3-3.1-5.7-3.1
	c-5.9,0-6.4,3.3-9,8.1c-1.1,2.1-1.6,5.5-3.9,8.1c-1.3,1.5-5.5,7.7-8.4,8.8v0l0,0v44.1l0,0.1v-0.3c0.2-0.6,0.4-1.1,0.6-1.6
	c1.1-2.4,3.7-4.6,5.2-7.1c0.8-1.3,1.7-2.7,2.2-4.1c0.4-1.2,0.7-3,1.3-4.1c0.8-1.3,2-1.7,3.3-1.9c2-0.3,3.7,2.9,6.3,4.1
	c1.1,0.5,6.1,2.3,7.6,2.7c2.5,0.6,5.2,1.1,7.8,1.6c1.4,0.3,2.6,0.4,4,0.6c1.2,0.1,5.9,0.3,6.2,0.6c-2.4,1.2-3.8,4.6-4.7,7
	c-0.9,2.5-1.6,5.3-2.7,7.8c-1.2,2.7-3.9,3.8-3.6,7c0.1,1.3,0.4,2.6,0.1,4c-0.2,1.5-0.8,2.6-1.2,4c-0.6,1.9-1.2,7.9-2.1,9.7l5.2-0.7
	l0,0c0.6-1.4,1.1-7.1,1.3-7.6c1-2.9,2.3-5.2,4.3-7.4c1.9-2.2,1.8-4.9,3-7.4c1.2-2.7,2.9-4.9,4.4-7.5c2.8-4.6,4.7-10.5,10.6-11.7
	c0.6-0.1,4.3,2.5,5.9,4.1c1.9,1.8,3.9,3.9,5.1,6.3c2.4,4.8,4.4,11.7,5.1,15.5c0.4,2.2,0.8,2.3,2.3,4.1c0.7,0.8,2,3.3,2.5,4.2
	c0.5,1,1.2,3.3,1.8,4.5c0.3,0.7,1.2,2.9,1.8,4.7l4.9-0.2c0,0,0.1,0,0.1,0c0,0,0,0,0,0c0,0,0-0.1-0.1-0.1
	C192.3,214.9,190.8,209.2,190,203.9L190,203.9z"/>
<linearGradient id="SVGID_1_" gradientUnits="userSpaceOnUse" x1="210.2946" y1="299.2116" x2="210.2946" y2="298.2116" gradientTransform="matrix(48.063 0 0 -44.1745 -9941.6289 13394.0566)">
	<stop  offset="0" style="stop-color:#F29100"/>
	<stop  offset="1" style="stop-color:#EC670F"/>
</linearGradient>
<path class="st1" d="M187.9,215.2c-0.6-1.2-1.3-3.5-1.8-4.5c-0.4-1-1.8-3.4-2.5-4.2c-1.5-1.7-1.8-1.9-2.3-4.1
	c-0.8-3.8-2.8-10.7-5.1-15.5c-1.2-2.5-3.3-4.5-5.1-6.3c-1.6-1.6-5.3-4.2-5.9-4.1c-6,1.2-7.8,7.1-10.6,11.7c-1.6,2.6-3.2,4.8-4.4,7.5
	c-1.1,2.5-1,5.3-3,7.4c-2,2.2-3.3,4.6-4.2,7.4c-0.2,0.5-0.7,6.2-1.3,7.6l0,0l8.9-0.6c8.3,0.6,5.9,3.7,18.8,3l20.4-0.6
	C189.2,218.1,188.3,215.9,187.9,215.2L187.9,215.2z"/>
<linearGradient id="SVGID_2_" gradientUnits="userSpaceOnUse" x1="211.8434" y1="300.3673" x2="211.8434" y2="299.3673" gradientTransform="matrix(161.443 0 0 -140.6732 -34013.9062 42343.6211)">
	<stop  offset="0" style="stop-color:#F29100"/>
	<stop  offset="1" style="stop-color:#EC670F"/>
</linearGradient>
<path class="st2" d="M247.1,90H126.3c-11.2,0-20.3,9.1-20.3,20.3v44.4c2.9-1.1,7.1-7.2,8.4-8.8c2.3-2.6,2.7-6,3.9-8.1
	c2.6-4.8,3.1-8.1,9-8.1c2.8,0,3.9,0.6,5.7,3.1c1.3,1.7,3.5,5,4.6,7.1c1.2,2.5,3.2,5.8,4.1,6.5c0.6,0.5,1.3,0.9,1.9,1.1
	c1,0.4,1.8-0.3,2.4-0.8c0.8-0.7,1.2-2,1.9-3.8c1.1-2.6,2.3-5.6,3-6.7c1.2-1.8,1.6-4,2.8-5.1c1.9-1.6,4.3-1.7,5-1.8
	c3.8-0.7,5.5,1.8,7.3,3.5c1.2,1.1,2.9,3.3,4,6.2c0.9,2.3,2.1,4.4,2.6,5.7c0.5,1.3,1.6,3.3,2.3,5.7c0.6,2.2,2.3,3.9,2.9,5
	c0,0,1,2.7,6.9,5.2c1.3,0.5,3.9,1.4,5.4,2c2.6,0.9,5.1,0.8,8.3,0.4c2.3,0,3.5-3.3,4.5-5.9c0.6-1.6,1.2-6,1.6-7.3
	c0.4-1.2-0.5-2.2,0.3-3.3c0.9-1.3,1.4-1.3,1.9-3c1.1-3.5,7.5-3.7,11.2-3.7c3,0,2.6,2.9,7.7,1.9c2.9-0.6,5.8,0.4,8.9,1.2
	c2.6,0.7,5.1,1.5,6.6,3.2c1,1.1,3.3,6.7,0.9,7c0.2,0.3,0.4,0.8,0.8,1.1c-0.5,2.1-2.9,0.6-4.2,0.3c-1.8-0.4-3,0.1-4.7,0.8
	c-2.9,1.3-7.2,1.2-9.8,3.3c-2.2,1.8-2.2,5.8-3.2,8.1c0,0-2.8,7.2-8.9,11.6c-1.6,1.1-4.6,3.9-11.3,4.9c-3,0.5-5.8,0.5-8.9,0.3
	c-1.5-0.1-2.9-0.2-4.4-0.2c-0.9,0-3.9-0.1-3.7,0.2l-0.3,0.8c0.1,0.3,0.2,1,0.2,1.1c0.1,0.7,0.2,1.2,0.2,1.8c0,1.3-0.1,2.6,0,3.9
	c0.1,2.6,1.1,5.1,1.2,7.7c0.1,3,1.6,6.1,3,8.5c0.5,0.9,1.4,1,1.7,2.2c0.4,1.3,0,2.7,0.2,4.1c0.8,5.4,2.3,11,4.8,15.9
	c0,0,0,0.1,0.1,0.1c3-0.5,6-1.6,9.9-2.2c7.1-1.1,17.1-0.5,23.4-1.1c16.1-1.5,24.9,6.6,39.4,3.3V110.3C267.5,99.1,258.3,90,247.1,90
	L247.1,90z M186.9,185.5C186.8,185.2,186.9,185.3,186.9,185.5L186.9,185.5z"/>
<linearGradient id="SVGID_3_" gradientUnits="userSpaceOnUse" x1="210.1231" y1="299.4158" x2="210.1231" y2="298.4158" gradientTransform="matrix(44.596 0 0 -49.8684 -9242.3447 15101.2197)">
	<stop  offset="0" style="stop-color:#F29100"/>
	<stop  offset="1" style="stop-color:#EC670F"/>
</linearGradient>
<path class="st3" d="M143.2,194.2c1.1-2.5,1.8-5.3,2.7-7.8c0.9-2.4,2.3-5.8,4.7-7c-0.3-0.3-5-0.5-6.2-0.6c-1.4-0.1-2.7-0.3-4-0.6
	c-2.5-0.5-5.3-1-7.8-1.6c-1.5-0.4-6.5-2.1-7.6-2.6c-2.6-1.2-4.3-4.4-6.3-4.1c-1.3,0.2-2.5,0.6-3.3,1.9c-0.7,1.1-0.9,2.9-1.3,4.1
	c-0.5,1.4-1.4,2.7-2.2,4.1c-1.4,2.5-4.1,4.7-5.2,7.1c-0.2,0.5-0.4,1.1-0.6,1.6v27.4c1.3,0.2,2.7,0.5,4.2,0.9c11.3,3,14.1,3.3,25.2,2
	l1-0.1v0c0.9-1.8,1.5-7.8,2.1-9.7c0.4-1.4,1-2.6,1.2-4c0.2-1.4,0-2.7-0.1-4C139.4,198,142,196.9,143.2,194.2z"/>
</svg>
