<?xml version="1.0" encoding="UTF-8"?>
<svg width="50px" height="50px" viewBox="0 0 50 50" version="1.1" xmlns="http://www.w3.org/2000/svg" xmlns:xlink="http://www.w3.org/1999/xlink">
    <!-- Generator: Sketch 43.1 (39012) - http://www.bohemiancoding.com/sketch -->
    <title>Artboard Copy 10</title>
    <desc>Created with Sketch.</desc>
    <defs></defs>
    <g id="Page-1" stroke="none" stroke-width="1" fill="none" fill-rule="evenodd">
        <g id="Artboard-Copy-10">
            <rect id="Rectangle-Copy-3" fill="#2980B9" x="0" y="0" width="50" height="50" rx="5"></rect>
            <path d="M21.6176758,17.8857422 L26.1601562,17.8857422 L26.1601562,33 L23.2172852,33 L23.2172852,22.7768555 C23.2172852,22.4829087 23.2207031,22.0710476 23.2275391,21.5412598 C23.234375,21.011472 23.237793,20.6030288 23.237793,20.315918 L20.3769531,33 L17.3110352,33 L14.4707031,20.315918 C14.4707031,20.6030288 14.4741211,21.011472 14.480957,21.5412598 C14.487793,22.0710476 14.4912109,22.4829087 14.4912109,22.7768555 L14.4912109,33 L11.5483398,33 L11.5483398,17.8857422 L16.1420898,17.8857422 L18.8901367,29.7700195 L21.6176758,17.8857422 Z M29.0927734,17.8857422 L32.2509766,17.8857422 L32.2509766,30.2827148 L39.7363281,30.2827148 L39.7363281,33 L29.0927734,33 L29.0927734,17.8857422 Z" id="ML" fill="#FFFFFF"></path>
        </g>
    </g>
</svg>