<?xml version="1.0" encoding="UTF-8"?>
<svg width="50px" height="50px" viewBox="0 0 50 50" version="1.1" xmlns="http://www.w3.org/2000/svg" xmlns:xlink="http://www.w3.org/1999/xlink">
    <!-- Generator: Sketch 43.1 (39012) - http://www.bohemiancoding.com/sketch -->
    <title>Artboard Copy 9</title>
    <desc>Created with Sketch.</desc>
    <defs></defs>
    <g id="Page-1" stroke="none" stroke-width="1" fill="none" fill-rule="evenodd">
        <g id="Artboard-Copy-9">
            <rect id="Rectangle-Copy-4" fill="#8E44AD" x="0" y="0" width="50" height="50" rx="5"></rect>
            <path d="M12.359375,28.734375 C12.7083351,28.270831 12.8828125,27.6119834 12.8828125,26.7578125 C12.8828125,25.9036416 12.7083351,25.2460961 12.359375,24.7851562 C12.0104149,24.3242164 11.5104199,24.09375 10.859375,24.09375 C10.2083301,24.09375 9.70703301,24.3242164 9.35546875,24.7851562 C9.00390449,25.2460961 8.828125,25.9036416 8.828125,26.7578125 C8.828125,27.6119834 9.00390449,28.270831 9.35546875,28.734375 C9.70703301,29.197919 10.2083301,29.4296875 10.859375,29.4296875 C11.5104199,29.4296875 12.0104149,29.197919 12.359375,28.734375 Z M14.140625,29.9648438 C13.4218714,30.852869 12.3307365,31.296875 10.8671875,31.296875 C9.40363852,31.296875 8.31250359,30.852869 7.59375,29.9648438 C6.87499641,29.0768185 6.515625,28.0078187 6.515625,26.7578125 C6.515625,25.5286397 6.87499641,24.4635462 7.59375,23.5625 C8.31250359,22.6614538 9.40363852,22.2109375 10.8671875,22.2109375 C12.3307365,22.2109375 13.4218714,22.6614538 14.140625,23.5625 C14.8593786,24.4635462 15.21875,25.5286397 15.21875,26.7578125 C15.21875,28.0078187 14.8593786,29.0768185 14.140625,29.9648438 Z M24.0429688,23.5078125 C24.6757844,24.3151082 24.9921875,25.3567645 24.9921875,26.6328125 C24.9921875,27.9557358 24.6796906,29.052079 24.0546875,29.921875 C23.4296844,30.791671 22.5572973,31.2265625 21.4375,31.2265625 C20.7343715,31.2265625 20.169273,31.0859389 19.7421875,30.8046875 C19.4869779,30.63802 19.210939,30.3463562 18.9140625,29.9296875 L18.9140625,31 L16.734375,31 L16.734375,19.5 L18.953125,19.5 L18.953125,23.59375 C19.2343764,23.1979147 19.5442691,22.8958344 19.8828125,22.6875 C20.2838562,22.427082 20.7942677,22.296875 21.4140625,22.296875 C22.5338598,22.296875 23.4101531,22.7005168 24.0429688,23.5078125 Z M22.1796875,28.6953125 C22.4973974,28.2317685 22.65625,27.6223996 22.65625,26.8671875 C22.65625,26.2630178 22.5781258,25.7630228 22.421875,25.3671875 C22.1249985,24.6171838 21.578129,24.2421875 20.78125,24.2421875 C19.9739543,24.2421875 19.4192723,24.6093713 19.1171875,25.34375 C18.9609367,25.734377 18.8828125,26.2395802 18.8828125,26.859375 C18.8828125,27.5885453 19.0442692,28.1927059 19.3671875,28.671875 C19.6901058,29.1510441 20.1822884,29.390625 20.84375,29.390625 C21.4166695,29.390625 21.8619776,29.1588565 22.1796875,28.6953125 Z M28.9140625,21.46875 L26.6875,21.46875 L26.6875,19.4140625 L28.9140625,19.4140625 L28.9140625,21.46875 Z M25.6171875,32.6328125 C25.7421881,32.6432292 25.8307289,32.6497396 25.8828125,32.6523438 C25.9348961,32.6549479 25.9817706,32.65625 26.0234375,32.65625 C26.2421886,32.65625 26.4075515,32.6028651 26.5195312,32.4960938 C26.631511,32.3893224 26.6875,32.1822932 26.6875,31.875 L26.6875,22.5234375 L28.9140625,22.5234375 L28.9140625,31.9140625 C28.9140625,32.7734418 28.7447934,33.4088521 28.40625,33.8203125 C28.0677066,34.2317729 27.4036508,34.4375 26.4140625,34.4375 C26.3463538,34.4375 26.2460944,34.4348959 26.1132812,34.4296875 C25.9804681,34.4244791 25.8151052,34.4192709 25.6171875,34.4140625 L25.6171875,32.6328125 Z M30.359375,25.484375 L34.84375,25.484375 L34.84375,27.59375 L30.359375,27.59375 L30.359375,25.484375 Z M41.4453125,25.5390625 C41.4036456,25.2213526 41.2968759,24.9348971 41.125,24.6796875 C40.8749988,24.3359358 40.4869818,24.1640625 39.9609375,24.1640625 C39.2109337,24.1640625 38.697918,24.5364546 38.421875,25.28125 C38.2760409,25.6770853 38.203125,26.2031217 38.203125,26.859375 C38.203125,27.4843781 38.2760409,27.9869773 38.421875,28.3671875 C38.6875013,29.0755244 39.1874963,29.4296875 39.921875,29.4296875 C40.4427109,29.4296875 40.8124989,29.2890639 41.03125,29.0078125 C41.2500011,28.7265611 41.3828123,28.3619814 41.4296875,27.9140625 L43.703125,27.9140625 C43.6510414,28.5911492 43.4062522,29.2317678 42.96875,29.8359375 C42.2708298,30.8099007 41.236986,31.296875 39.8671875,31.296875 C38.497389,31.296875 37.4895866,30.8906291 36.84375,30.078125 C36.1979134,29.2656209 35.875,28.210944 35.875,26.9140625 C35.875,25.4505135 36.2317673,24.3125041 36.9453125,23.5 C37.6588577,22.6874959 38.6432229,22.28125 39.8984375,22.28125 C40.9661512,22.28125 41.8398404,22.5208309 42.5195312,23 C43.1992221,23.4791691 43.6015619,24.3255148 43.7265625,25.5390625 L41.4453125,25.5390625 Z" id="obj-c" fill="#FFFFFF"></path>
        </g>
    </g>
</svg>