<?xml version="1.0" encoding="UTF-8"?>
<svg width="50px" height="50px" viewBox="0 0 50 50" version="1.1" xmlns="http://www.w3.org/2000/svg" xmlns:xlink="http://www.w3.org/1999/xlink">
    <!-- Generator: Sketch 43.1 (39012) - http://www.bohemiancoding.com/sketch -->
    <title>Artboard Copy 3</title>
    <desc>Created with Sketch.</desc>
    <defs></defs>
    <g id="Page-1" stroke="none" stroke-width="1" fill="none" fill-rule="evenodd">
        <g id="Artboard-Copy-3">
            <rect id="Rectangle-Copy-3" fill="#9B59B6" x="0" y="0" width="50" height="50" rx="5"></rect>
            <path d="M14.6655273,20.5107422 L14.6655273,30.375 L17.5776367,30.375 C19.0678785,30.375 20.1069307,29.6401441 20.6948242,28.1704102 C21.0161149,27.3637655 21.1767578,26.4033259 21.1767578,25.2890625 C21.1767578,23.7509689 20.9357934,22.5700725 20.4538574,21.7463379 C19.9719214,20.9226033 19.0131908,20.5107422 17.5776367,20.5107422 L14.6655273,20.5107422 Z M20.4487305,18.2138672 C21.5083061,18.5625017 22.3662077,19.2016555 23.0224609,20.1313477 C23.5488308,20.8833045 23.9077139,21.696773 24.0991211,22.5717773 C24.2905283,23.4467817 24.3862305,24.2807578 24.3862305,25.0737305 C24.3862305,27.0835061 23.9829142,28.7856376 23.1762695,30.1801758 C22.0825141,32.060068 20.3940544,33 18.1108398,33 L11.5996094,33 L11.5996094,17.8857422 L18.1108398,17.8857422 C19.047368,17.8994141 19.826657,18.008788 20.4487305,18.2138672 Z M29.0517578,28.3344727 C29.1474614,29.0249058 29.3354478,29.5410139 29.6157227,29.8828125 C30.1284205,30.5048859 31.0068297,30.815918 32.2509766,30.815918 C32.9960975,30.815918 33.6010719,30.7338875 34.065918,30.5698242 C34.9477583,30.2553695 35.3886719,29.6709027 35.3886719,28.8164062 C35.3886719,28.3173803 35.1699241,27.9311537 34.7324219,27.6577148 C34.2949197,27.3911119 33.6079148,27.1552745 32.6713867,26.9501953 L31.0717773,26.5913086 C29.4995039,26.2358381 28.4126007,25.8496115 27.8110352,25.4326172 C26.7924754,24.7353481 26.2832031,23.6450269 26.2832031,22.1616211 C26.2832031,20.8080987 26.7753857,19.6835982 27.7597656,18.7880859 C28.7441455,17.8925736 30.1899319,17.4448242 32.097168,17.4448242 C33.6899494,17.4448242 35.0485784,17.8669391 36.1730957,18.7111816 C37.297613,19.5554241 37.8872068,20.7807537 37.9418945,22.387207 L34.9067383,22.387207 C34.8520505,21.4780228 34.4555701,20.8320332 33.7172852,20.4492188 C33.2250952,20.1962878 32.6132849,20.0698242 31.8818359,20.0698242 C31.0683553,20.0698242 30.4189477,20.2338851 29.9335938,20.5620117 C29.4482398,20.8901384 29.2055664,21.3481416 29.2055664,21.9360352 C29.2055664,22.4760769 29.4448218,22.8793932 29.9233398,23.1459961 C30.2309586,23.3237314 30.887202,23.5322254 31.8920898,23.7714844 L34.496582,24.3969727 C35.6381893,24.6704115 36.4995088,25.0361305 37.0805664,25.4941406 C37.9829147,26.2050817 38.434082,27.23388 38.434082,28.5805664 C38.434082,29.9614327 37.9060111,31.1081497 36.8498535,32.020752 C35.7936959,32.9333542 34.3017675,33.3896484 32.3740234,33.3896484 C30.4052636,33.3896484 28.8569392,32.94019 27.7290039,32.0412598 C26.6010686,31.1423295 26.0371094,29.9067461 26.0371094,28.3344727 L29.0517578,28.3344727 Z" id="DS" fill="#FFFFFF"></path>
        </g>
    </g>
</svg>