<svg xmlns="http://www.w3.org/2000/svg" xmlns:xlink="http://www.w3.org/1999/xlink" height="766.444" viewBox="0 0 480 766.444" width="480"><defs><linearGradient gradientUnits="userSpaceOnUse" id="b" x1="43.944" x2="411.394" y1="733.393" y2="425.066"><stop offset=".056" stop-color="#204a87"/><stop offset=".567" stop-color="#3465a4"/><stop offset=".955" stop-color="#eeeeec"/></linearGradient><linearGradient gradientTransform="matrix(.5546 0 0 .5546 112.422 231.359)" gradientUnits="userSpaceOnUse" id="c" x1="43.944" x2="411.394" y1="733.393" y2="425.066"><stop offset=".056" stop-color="#003f90"/><stop offset=".567" stop-color="#0093d2"/><stop offset=".955" stop-color="#edf3f7"/></linearGradient><linearGradient gradientUnits="userSpaceOnUse" id="a" x1="43.944" x2="411.394" y1="733.393" y2="425.066"><stop offset=".056" stop-color="#003f90"/><stop offset=".567" stop-color="#0093d2"/><stop offset=".955" stop-color="#edf3f7"/></linearGradient><linearGradient id="v"><stop offset="0" stop-color="#73d216"/><stop offset=".256" stop-color="#8ae234"/><stop offset=".594" stop-color="#73d216"/><stop offset="1" stop-color="#8ae234"/></linearGradient><linearGradient id="d"><stop offset="0" stop-opacity="0"/><stop offset=".5"/><stop offset="1" stop-opacity="0"/></linearGradient><linearGradient id="e"><stop offset="0"/><stop offset="1" stop-opacity="0"/></linearGradient><linearGradient id="s"><stop offset="0" stop-color="#d4abab"/><stop offset=".5" stop-color="#b52a2a"/><stop offset="1" stop-color="#6f0000"/></linearGradient><linearGradient id="f"><stop offset="0" stop-color="#fff"/><stop offset=".5" stop-color="#fff" stop-opacity=".219"/><stop offset="1" stop-color="#fff"/></linearGradient><linearGradient id="k"><stop offset="0" stop-color="#fafafa"/><stop offset="1" stop-color="#bbb"/></linearGradient><linearGradient id="j"><stop offset="0" stop-color="#a3a3a3"/><stop offset="1" stop-color="#4c4c4c"/></linearGradient><radialGradient cx="20.892" cy="114.568" fx="20.892" fy="114.568" gradientUnits="userSpaceOnUse" id="h" r="5.256"><stop offset="0" stop-color="#f0f0f0"/><stop offset="1" stop-color="#9a9a9a"/></radialGradient><radialGradient cx="20.892" cy="64.568" fx="20.892" fy="64.568" gradientUnits="userSpaceOnUse" id="g" r="5.257"><stop offset="0" stop-color="#f0f0f0"/><stop offset="1" stop-color="#9a9a9a"/></radialGradient><linearGradient id="i"><stop offset="0" stop-color="#fff"/><stop offset="1" stop-color="#f8f8f8"/></linearGradient><linearGradient id="l"><stop offset="0"/><stop offset="1" stop-opacity="0"/></linearGradient><linearGradient id="o"><stop offset="0" stop-color="#3465a4"/><stop offset="1" stop-color="#3465a4"/></linearGradient><linearGradient id="n"><stop offset="0" stop-color="#b9e7c9"/><stop offset="1" stop-color="#72cf79"/></linearGradient><linearGradient id="m"><stop offset="0" stop-color="#72cf7b"/><stop offset="1" stop-color="#57c552"/></linearGradient><linearGradient id="u"><stop offset="0" stop-color="#ffd1d1"/><stop offset=".5" stop-color="#ff1d1d"/><stop offset="1" stop-color="#6f0000"/></linearGradient><radialGradient cx="28.789" cy="20.971" fx="28.789" fy="20.971" gradientUnits="userSpaceOnUse" id="p" r="13.281"><stop offset="0" stop-color="#e41e08"/><stop offset="1" stop-color="#901505"/></radialGradient><linearGradient id="t"><stop offset="0" stop-color="#ffa196"/><stop offset="1" stop-color="#ff1f06" stop-opacity="0"/></linearGradient><linearGradient id="q"><stop offset="0" stop-color="#1d2349"/><stop offset=".353" stop-color="#4c5279"/><stop offset=".466" stop-color="#b3bdff"/><stop offset=".65" stop-color="#727cbe"/><stop offset="1" stop-color="#323c7e"/></linearGradient><linearGradient id="r"><stop offset="0" stop-color="#d5dbff"/><stop offset="1" stop-color="#6579ff" stop-opacity="0"/></linearGradient><linearGradient id="w"><stop offset="0" stop-color="#fff"/><stop offset="1" stop-color="#fff" stop-opacity="0"/></linearGradient><linearGradient xlink:href="#d" id="x" gradientUnits="userSpaceOnUse" gradientTransform="matrix(.73721 0 0 .36168 -933.515 129.373)" x1="302.857" y1="366.648" x2="302.857" y2="609.505"/><radialGradient xlink:href="#e" id="y" gradientUnits="userSpaceOnUse" gradientTransform="matrix(.73721 0 0 .36168 -933.37 129.373)" cx="605.714" cy="486.648" fx="605.714" fy="486.648" r="117.143"/><radialGradient xlink:href="#e" id="z" gradientUnits="userSpaceOnUse" gradientTransform="matrix(-.73721 0 0 .36168 -400.76 129.373)" cx="605.714" cy="486.648" fx="605.714" fy="486.648" r="117.143"/><linearGradient xlink:href="#w" id="A" gradientUnits="userSpaceOnUse" x1="160.055" y1="251.429" x2="273.295" y2="493.865"/></defs><path fill="none" d="M-1.2 193.14h500v500h-500z"/><path style="marker:none" opacity=".23" fill="url(#x)" overflow="visible" d="M-845.049 261.982h355.968v87.836h-355.968z" transform="matrix(.87492 0 0 .7761 826.594 386.034)"/><path d="M-489.08 261.984v87.831c37.964.166 91.78-19.678 91.78-43.92 0-24.243-42.366-43.91-91.78-43.91z" style="marker:none" opacity=".23" fill="url(#y)" overflow="visible" transform="matrix(.87492 0 0 .7761 826.594 386.034)"/><path d="M-845.05 261.984v87.831c-37.964.166-91.78-19.678-91.78-43.92 0-24.243 42.367-43.91 91.78-43.91z" style="marker:none" opacity=".23" fill="url(#z)" overflow="visible" transform="matrix(.87492 0 0 .7761 826.594 386.034)"/><g><path d="M46.263 269.253H439.45v349.075H46.263V269.253z" fill="#729fcf" stroke="#2e3436" stroke-width="17.488198039999997" stroke-linecap="round" stroke-linejoin="round"/><g fill="#fff"><path d="M414.216 291.593c-122.775 27.51-245.427 52.99-348.09 97.26l1.92 62.707c6.532 6.532 260.251-47.116 274.505-10.878 14.253 36.238-267.963 87.266-273.865 83.823l1.92 23.036c123.65-24.146 244.413-50.514 346.17-91.502l1.28-73.585c-98.832 8.35-276.377 34.517-257.868 10.238 18.508-24.278 90.712-48.375 257.867-78.064l-3.839-23.035z" fill-rule="evenodd"/><g stroke-width="18.351" stroke-linecap="round"><path d="M89.162 472.676a5.119 5.119 0 1 1-10.238 0 5.119 5.119 0 1 1 10.238 0zM103.495 472.676a5.119 5.119 0 1 1-10.238 0 5.119 5.119 0 1 1 10.238 0zM89.162 495.967a5.119 5.119 0 1 1-10.238 0 5.119 5.119 0 1 1 10.238 0zM103.495 495.967a5.119 5.119 0 1 1-10.238 0 5.119 5.119 0 1 1 10.238 0z"/></g></g><path fill="#fff" stroke-width="18.351" stroke-linecap="round" d="M67.406 546.261h350.01v42.871H67.405z"/><g font-size="13" font-weight="400" stroke-width="2.1" stroke-linejoin="round" font-family="Bitstream Vera Sans"><path d="M180.303 839.194v4.281c-1.666-.796-3.238-1.39-4.716-1.781-1.477-.392-2.904-.587-4.28-.587-2.391 0-4.238.463-5.542 1.39-1.29.928-1.934 2.246-1.934 3.956 0 1.434.427 2.52 1.282 3.26.87.724 2.506 1.31 4.911 1.76l2.651.543c3.275.623 5.687 1.724 7.237 3.303 1.564 1.565 2.347 3.665 2.347 6.302 0 3.144-1.058 5.527-3.173 7.15-2.1 1.622-5.186 2.433-9.257 2.433-1.536 0-3.173-.174-4.912-.521a36.604 36.604 0 0 1-5.367-1.543v-4.52c1.782 1 3.527 1.753 5.237 2.26 1.71.507 3.39.76 5.042.76 2.506 0 4.44-.492 5.802-1.477 1.362-.985 2.043-2.39 2.043-4.216 0-1.594-.493-2.84-1.478-3.738-.97-.898-2.572-1.572-4.803-2.02l-2.673-.522c-3.274-.652-5.643-1.674-7.106-3.064-1.463-1.391-2.195-3.325-2.195-5.803 0-2.868 1.007-5.128 3.021-6.78 2.028-1.651 4.817-2.477 8.367-2.477 1.52 0 3.07.138 4.65.413a33.57 33.57 0 0 1 4.846 1.238M198.928 838.053h4.49v20.06c0 3.538.641 6.09 1.924 7.652 1.283 1.548 3.362 2.322 6.237 2.322 2.86 0 4.932-.774 6.215-2.322 1.282-1.563 1.924-4.114 1.924-7.652v-20.06h4.49v20.613c0 4.305-1.07 7.556-3.207 9.753-2.124 2.197-5.264 3.295-9.422 3.295-4.173 0-7.328-1.098-9.466-3.295-2.123-2.197-3.185-5.448-3.185-9.753v-20.613M246.136 855.322v12.333h7.305c2.45 0 4.261-.503 5.433-1.51 1.188-1.022 1.782-2.578 1.782-4.667 0-2.105-.594-3.653-1.782-4.645-1.172-1.007-2.983-1.51-5.433-1.51h-7.305m0-13.844v10.146h6.741c2.225 0 3.878-.413 4.96-1.24 1.098-.842 1.646-2.12 1.646-3.833 0-1.698-.548-2.969-1.646-3.81-1.082-.842-2.735-1.263-4.96-1.263h-6.741m-4.554-3.743h11.633c3.472 0 6.148.722 8.027 2.165 1.879 1.443 2.818 3.495 2.818 6.155 0 2.06-.481 3.698-1.443 4.915-.962 1.218-2.375 1.977-4.239 2.277 2.24.481 3.976 1.488 5.209 3.021 1.247 1.519 1.87 3.42 1.87 5.705 0 3.006-1.021 5.328-3.065 6.966-2.045 1.639-4.953 2.458-8.726 2.458h-12.084v-33.662" fill="#729fcf" stroke="#729fcf" transform="matrix(.88395 0 0 .7724 -63.523 -92.155)"/><path d="M290.004 871.425l-12.852-33.661h4.758l10.664 28.34 10.687-28.34h4.735l-12.83 33.661h-5.162M323.442 837.691h21.284v3.833h-16.73v9.965h16.031v3.833h-16.03v12.198h17.135v3.833h-21.69V837.69M379.902 855.881c.977.33 1.924 1.037 2.841 2.12.932 1.082 1.864 2.57 2.796 4.464l4.622 9.198h-4.893l-4.306-8.635c-1.112-2.254-2.195-3.75-3.247-4.486-1.037-.737-2.457-1.105-4.261-1.105h-4.96v14.226h-4.554v-33.661h10.28c3.848 0 6.72.804 8.613 2.412 1.894 1.609 2.841 4.036 2.841 7.283 0 2.12-.496 3.878-1.488 5.276-.977 1.397-2.405 2.367-4.284 2.908m-11.408-14.136v11.95h5.727c2.194 0 3.847-.504 4.96-1.512 1.127-1.022 1.69-2.517 1.69-4.486 0-1.97-.563-3.45-1.69-4.442-1.113-1.007-2.766-1.51-4.96-1.51h-5.727M424.659 839.278v4.281c-1.666-.796-3.238-1.39-4.716-1.782-1.478-.39-2.905-.586-4.281-.586-2.39 0-4.238.463-5.541 1.39-1.29.928-1.935 2.246-1.935 3.956 0 1.434.428 2.52 1.283 3.26.869.724 2.506 1.31 4.91 1.76l2.652.543c3.274.623 5.686 1.724 7.236 3.303 1.565 1.564 2.347 3.665 2.347 6.302 0 3.144-1.057 5.527-3.172 7.15-2.101 1.622-5.187 2.433-9.258 2.433-1.535 0-3.172-.174-4.911-.521a36.604 36.604 0 0 1-5.368-1.543v-4.52c1.782 1 3.528 1.753 5.238 2.26 1.71.507 3.39.76 5.041.76 2.507 0 4.44-.492 5.802-1.477 1.362-.986 2.043-2.39 2.043-4.216 0-1.594-.492-2.84-1.478-3.738-.97-.898-2.571-1.572-4.802-2.02l-2.673-.522c-3.274-.652-5.643-1.674-7.106-3.065-1.463-1.39-2.195-3.324-2.195-5.802 0-2.868 1.007-5.128 3.02-6.78 2.029-1.651 4.818-2.477 8.367-2.477 1.521 0 3.071.137 4.65.413a33.57 33.57 0 0 1 4.847 1.238M443.287 837.69h4.554v33.662h-4.554v-33.661M477.5 841.157c-3.187 0-5.722 1.188-7.605 3.564-1.87 2.376-2.804 5.614-2.804 9.714 0 4.085.935 7.316 2.804 9.692 1.883 2.376 4.418 3.564 7.605 3.564 3.188 0 5.708-1.188 7.563-3.564 1.869-2.376 2.803-5.607 2.803-9.692 0-4.1-.934-7.338-2.803-9.714-1.855-2.376-4.375-3.564-7.563-3.564m0-3.564c4.55 0 8.186 1.529 10.91 4.585 2.723 3.043 4.085 7.128 4.085 12.257 0 5.114-1.362 9.2-4.086 12.256-2.723 3.042-6.36 4.563-10.909 4.563-4.563 0-8.214-1.52-10.952-4.563-2.724-3.042-4.085-7.128-4.085-12.256 0-5.129 1.361-9.214 4.085-12.257 2.738-3.057 6.389-4.585 10.952-4.585M509.09 838.045h6.132l14.925 28.16v-28.16h4.42v33.661h-6.133l-14.926-28.16v28.16h-4.419v-33.661" fill="#888a85" stroke="#888a85" transform="matrix(.88395 0 0 .7724 -63.523 -92.155)"/></g><path d="M147.593 358.813v349.015h400.804V356.674H147.593v2.14z" fill="url(#A)" stroke="#d3d7cf" stroke-width="19.522" stroke-linecap="round" transform="matrix(.89582 0 0 .89582 -68.886 -33.018)"/></g><text x="-2711.844" y="-577.829" font-size="12" font-weight="400" font-family="Bitstream Vera Sans"><tspan x="-2711.844" y="-577.829"></tspan></text></svg>