<svg id="Layer_1" xmlns="http://www.w3.org/2000/svg" viewBox="-146 226 50 50"><style>.st0{fill:url(#SVGID_1_)}.st1{fill:url(#SVGID_2_)}.st2{fill:url(#SVGID_3_)}.st3{fill:url(#SVGID_4_)}</style><linearGradient id="SVGID_1_" gradientUnits="userSpaceOnUse" x1="-1387.608" y1="-886.551" x2="-1385.308" y2="-881.69" gradientTransform="translate(11427.987 7610.769) scale(8.3322)"><stop offset="0" stop-color="#a0cbff"/><stop offset=".394" stop-color="#a0cbfe"/><stop offset=".583" stop-color="#8ec2fc"/><stop offset=".784" stop-color="#83bcfb"/><stop offset="1" stop-color="#7fbafb"/></linearGradient><path class="st0" d="M-146 226.4h50v49.2h-50v-49.2z"/><linearGradient id="SVGID_2_" gradientUnits="userSpaceOnUse" x1="-1386.792" y1="-885.703" x2="-1385.492" y2="-881.383" gradientTransform="translate(11427.987 7610.769) scale(8.3322)"><stop offset="0" stop-color="#090058"/><stop offset="1" stop-color="#070033"/></linearGradient><path class="st1" d="M-142 230.3h42v41.3h-42v-41.3z"/><linearGradient id="SVGID_3_" gradientUnits="userSpaceOnUse" x1="-1388.324" y1="-886.292" x2="-1386.024" y2="-881.431" gradientTransform="translate(11427.987 7610.769) scale(8.3322)"><stop offset="0" stop-color="#a0cbff"/><stop offset=".394" stop-color="#a0cbfe"/><stop offset=".583" stop-color="#8ec2fc"/><stop offset=".784" stop-color="#83bcfb"/><stop offset="1" stop-color="#7fbafb"/></linearGradient><path class="st2" d="M-133.9 240.3s3.2-.1 5.8-.1c2.6 0 4.5.6 5.8 1.7 1.2 1 2 2.8 2 4.8s-.6 3.6-1.7 4.8c-1.5 1.5-3.2 2.4-6 2.5h-1.5v6.5h-4.2l-.2-20.2zm4.2 10.1h1.4c2.3 0 3.7-1.4 3.7-3.5 0-1.9-1.2-3.4-3.3-3.5h-1.8v7z"/><linearGradient id="SVGID_4_" gradientUnits="userSpaceOnUse" x1="-1387.014" y1="-886.927" x2="-1384.704" y2="-882.047" gradientTransform="translate(11427.987 7610.769) scale(8.3322)"><stop offset="0" stop-color="#a0cbff"/><stop offset=".394" stop-color="#a0cbfe"/><stop offset=".583" stop-color="#8ec2fc"/><stop offset=".784" stop-color="#83bcfb"/><stop offset="1" stop-color="#7fbafb"/></linearGradient><path class="st3" d="M-118.8 255.9c.9.5 2.9 1.3 4.2 1.3 1.4 0 2-.5 2-1.3s-.5-1.6-2.2-2.2c-3.1-1-4.3-2.3-4.2-4.1 0-2.8 2.4-5 6.1-5 1.7 0 3.1.6 4 1v3.4c-.7-.4-2.6-1.2-3.9-1.2-1.1 0-1.8.5-1.8 1.2s.6 1.1 2.4 1.7c2.8 1 4 2.4 4 4.6 0 2.8-2.2 5-6.4 4.9-1.5 0-3.1-.6-4.2-1.2v-3.1z"/></svg>