<?xml version="1.0" encoding="UTF-8"?>
<svg width="50px" height="50px" viewBox="0 0 50 50" version="1.1" xmlns="http://www.w3.org/2000/svg" xmlns:xlink="http://www.w3.org/1999/xlink">
    <!-- Generator: Sketch 43.1 (39012) - http://www.bohemiancoding.com/sketch -->
    <title>Artboard Copy 11</title>
    <desc>Created with Sketch.</desc>
    <defs></defs>
    <g id="Page-1" stroke="none" stroke-width="1" fill="none" fill-rule="evenodd">
        <g id="Artboard-Copy-11">
            <rect id="Rectangle-Copy-5" fill="#F39C12" x="0" y="0" width="50" height="50" rx="5"></rect>
            <path d="M6.171875,22.6738281 L6.171875,25.3808594 L8.55761719,25.3808594 C9.03157789,25.3808594 9.38704309,25.3261724 9.62402344,25.2167969 C10.0432964,25.0253897 10.2529297,24.6471382 10.2529297,24.0820312 C10.2529297,23.4713511 10.0501322,23.061199 9.64453125,22.8515625 C9.41666553,22.7330723 9.07487207,22.6738281 8.61914062,22.6738281 L6.171875,22.6738281 Z M10.6870117,21.1835938 C11.0675475,21.3430998 11.3899726,21.5777979 11.6542969,21.8876953 C11.873048,22.1429049 12.0462233,22.4254542 12.1738281,22.7353516 C12.3014329,23.0452489 12.3652344,23.3984355 12.3652344,23.7949219 C12.3652344,24.2734399 12.2444674,24.7439756 12.0029297,25.206543 C11.761392,25.6691104 11.362633,25.9960928 10.8066406,26.1875 C11.2714867,26.3743499 11.6007477,26.6398095 11.7944336,26.9838867 C11.9881195,27.327964 12.0849609,27.8531866 12.0849609,28.5595703 L12.0849609,29.2363281 C12.0849609,29.6966169 12.1031899,30.0087882 12.1396484,30.1728516 C12.1943362,30.4326185 12.3219391,30.6240228 12.5224609,30.7470703 L12.5224609,31 L10.2050781,31 C10.1412757,30.7766916 10.0957033,30.5966804 10.0683594,30.4599609 C10.0136716,30.1774074 9.9840495,29.8880223 9.97949219,29.5917969 L9.96582031,28.6552734 C9.95670568,28.0126921 9.8393566,27.584311 9.61376953,27.3701172 C9.38818247,27.1559234 8.96549789,27.0488281 8.34570312,27.0488281 L6.171875,27.0488281 L6.171875,31 L4.11425781,31 L4.11425781,20.9238281 L9.05664062,20.9238281 C9.76302437,20.9375001 10.306476,21.0240877 10.6870117,21.1835938 Z M15.909668,25.3808594 C15.6612943,25.6634129 15.5052087,26.0462215 15.4414062,26.5292969 L18.4697266,26.5292969 C18.4378254,26.0143203 18.2817397,25.6235365 18.0014648,25.3569336 C17.72119,25.0903307 17.3737,24.9570312 16.9589844,24.9570312 C16.5078102,24.9570312 16.1580416,25.0983059 15.909668,25.3808594 Z M18.6337891,23.6992188 C19.1305363,23.9316418 19.5406885,24.2985001 19.8642578,24.7998047 C20.1559259,25.2418642 20.3450517,25.7545544 20.4316406,26.3378906 C20.4817711,26.6796892 20.5022787,27.1718718 20.4931641,27.8144531 L15.3935547,27.8144531 C15.4208986,28.5618527 15.6555967,29.085936 16.0976562,29.3867188 C16.3665378,29.5735686 16.6901023,29.6669922 17.0683594,29.6669922 C17.469403,29.6669922 17.7952461,29.553061 18.0458984,29.3251953 C18.1826179,29.2021478 18.3033849,29.0312511 18.4082031,28.8125 L20.3974609,28.8125 C20.3473305,29.2545595 20.1171896,29.7034482 19.7070312,30.1591797 C19.0690072,30.8837927 18.175787,31.2460938 17.0273438,31.2460938 C16.0794223,31.2460938 15.2431677,30.9407583 14.5185547,30.3300781 C13.7939417,29.719398 13.4316406,28.7259183 13.4316406,27.3496094 C13.4316406,26.0598894 13.758623,25.070967 14.4125977,24.3828125 C15.0665723,23.694658 15.9153594,23.3505859 16.9589844,23.3505859 C17.5787791,23.3505859 18.1370418,23.4667957 18.6337891,23.6992188 Z M26.1601562,28.8842773 C26.4746109,28.5402001 26.6318359,27.9921913 26.6318359,27.2402344 C26.6318359,26.5338506 26.4825861,25.9960956 26.184082,25.6269531 C25.8855779,25.2578107 25.4856796,25.0732422 24.984375,25.0732422 C24.3007778,25.0732422 23.8291029,25.394528 23.5693359,26.0371094 C23.4326165,26.378908 23.3642578,26.8004532 23.3642578,27.3017578 C23.3642578,27.7347027 23.4371737,28.11979 23.5830078,28.4570312 C23.8473321,29.0859406 24.3212856,29.4003906 25.0048828,29.4003906 C25.4606143,29.4003906 25.8457016,29.2283546 26.1601562,28.8842773 Z M25.4970703,23.5419922 C25.971031,23.7379567 26.3538397,24.0979792 26.6455078,24.6220703 L26.6455078,23.5488281 L28.5390625,23.5488281 L28.5390625,30.6171875 C28.5390625,31.5787808 28.3772803,32.303383 28.0537109,32.7910156 C27.4977186,33.6295615 26.431323,34.0488281 24.8544922,34.0488281 C23.9020135,34.0488281 23.125003,33.861981 22.5234375,33.4882812 C21.921872,33.1145815 21.589193,32.5563188 21.5253906,31.8134766 L23.6445312,31.8134766 C23.699219,32.0413423 23.7880853,32.2054031 23.9111328,32.3056641 C24.1207693,32.4833993 24.4739558,32.5722656 24.9707031,32.5722656 C25.6725296,32.5722656 26.1419259,32.3375675 26.3789062,31.8681641 C26.5338549,31.5673813 26.6113281,31.061527 26.6113281,30.3505859 L26.6113281,29.8720703 C26.4244782,30.1910823 26.2239594,30.4303377 26.0097656,30.5898438 C25.6223939,30.8860692 25.1188182,31.0341797 24.4990234,31.0341797 C23.5419874,31.0341797 22.7775094,30.6980828 22.2055664,30.0258789 C21.6336234,29.353675 21.3476562,28.4433651 21.3476562,27.2949219 C21.3476562,26.1874945 21.6233696,25.2566769 22.1748047,24.5024414 C22.7262397,23.7482059 23.5078074,23.3710938 24.5195312,23.3710938 C24.893231,23.3710938 25.2190741,23.4280593 25.4970703,23.5419922 Z M37.9658203,22.7080078 L32.6337891,22.7080078 L32.6337891,24.8476562 L37.5283203,24.8476562 L37.5283203,26.5976562 L32.6337891,26.5976562 L32.6337891,29.1884766 L38.2119141,29.1884766 L38.2119141,31 L30.5761719,31 L30.5761719,20.9238281 L37.9658203,20.9238281 L37.9658203,22.7080078 Z M38.9638672,31 L41.5068359,27.2265625 L39.0732422,23.5625 L41.4589844,23.5625 L42.703125,25.7226562 L43.9199219,23.5625 L46.2373047,23.5625 L43.7900391,27.1923828 L46.3330078,31 L43.90625,31 L42.6210938,28.7646484 L41.3291016,31 L38.9638672,31 Z" id="RegEx" fill="#FFFFFF"></path>
        </g>
    </g>
</svg>