<?xml version="1.0" encoding="utf-8"?>
<!-- Generator: Adobe Illustrator 19.0.0, SVG Export Plug-In . SVG Version: 6.00 Build 0)  -->
<svg version="1.1" id="Layer_1" xmlns="http://www.w3.org/2000/svg" xmlns:xlink="http://www.w3.org/1999/xlink" x="0px" y="0px"
	 viewBox="61 109.8 93 82.2" style="enable-background:new 61 109.8 93 82.2;" xml:space="preserve">
<style type="text/css">
	.st0{fill:#772221;}
	.st1{fill:#808184;}
</style>
<g>
	<path class="st0" d="M108.1,125.4l-2.7,2.4v18.6h2.7V125.4z M110.3,148.8v2.1h2.7v-2.1h2.2v-2.3h-2.2v-25.6l-2.7,2.4v23.1h-2.2v2.3
		L110.3,148.8z M105.4,157.9h2.7v2.1h-2.7V157.9z M115.1,162.3h2.7v2.2h-2.7V162.3z"/>
	<path class="st0" d="M108.1,150.9v-2.1h-2.7v2.1h-2.3v2.4h2.3v2.1h2.7v-2.1h2.2v-2.4H108.1z M117.8,116.5l-2.7,2.3v27.7h2.7V116.5z
		"/>
	<path class="st0" d="M148.5,148.8v-2.3h-25.8v-34.5l-2.6,2.4v32.1h-2.3v2.3h2.3v2.1h-2.3v-2.1h-2.7v2.1h-2.2v2.4h2.2v2.1h-2.2v-2.1
		h-2.7v2.1h-2.2v2.4h2.2v2.1h-2.2v2.3h2.2v2.2h-2.2v-2.2h-2.7v2.2h-2.3v-2.2h2.3V160h-2.3v-2.1h2.3v-2.4h-2.3v-2.1h-2.6v-2.4h2.6
		v-2.1h2.3v-2.3h-2.3V130l-2.6,2.4v14.1H85.3l-2.5,2.3h17.8v2.1H80.4l-2.5,2.4h22.6v2.1H75.6l-2.7,2.4h27.6v2.1h-30l-2.5,2.3h32.5
		v2.2H65.7l-2.7,2.4h37.5v23.4h2.6v-23.4h2.3v23.4h2.7v-23.4h2.2v23.4h2.7v-23.4h2.2v-2.4h-2.2v-2.2h2.2V160h-2.2v-2.1h2.2v2.1h2.7
		v-2.1h2.3v-2.4h-2.3v-2.1h2.3v2.1h2.6v-2.1h25.8v-2.4h-25.8v-2.1H148.5z"/>
	<path class="st0" d="M115.1,166.9h2.7v23.4h-2.7V166.9z M122.7,155.4h25.8v2.4h-25.8V155.4z M120.1,160h-2.3v2.3h2.3v2.2h-2.3v2.4
		h2.3v23.4h2.6v-23.4h25.8v-2.4h-25.8v-2.2h25.8V160h-25.8v-2.1h-2.6V160z"/>
</g>
<path class="st1" d="M132.7,189.9c-1,0-1.9-0.6-2.3-1.5c-0.1-0.3-0.2-0.6-0.2-1v0c0-0.3,0.1-0.7,0.2-1c0.3-0.6,0.7-1.1,1.3-1.4
	c0.3-0.1,0.6-0.2,1-0.2c0.4,0,0.7,0.1,1,0.2c0.3,0.1,0.6,0.3,0.8,0.5c0.2,0.2,0.4,0.5,0.5,0.8c0.1,0.3,0.2,0.6,0.2,1v0
	c0,0.3-0.1,0.7-0.2,1c-0.1,0.3-0.3,0.6-0.5,0.8c-0.2,0.2-0.5,0.4-0.8,0.5C133.3,189.8,133,189.9,132.7,189.9z M132.7,189.7
	c0.3,0,0.6-0.1,0.9-0.2c0.3-0.1,0.5-0.3,0.7-0.5c0.4-0.4,0.7-1,0.7-1.6v0c0-0.6-0.2-1.2-0.7-1.6c-0.2-0.2-0.5-0.4-0.7-0.5
	c-0.3-0.1-0.6-0.2-0.9-0.2c-0.3,0-0.6,0.1-0.9,0.2c-0.3,0.1-0.5,0.3-0.7,0.5c-0.4,0.4-0.7,1-0.7,1.6v0c0,0.6,0.2,1.2,0.7,1.6
	c0.2,0.2,0.4,0.4,0.7,0.5C132,189.6,132.3,189.7,132.7,189.7z M131.7,186h1.2c0.2,0,0.3,0,0.4,0.1c0.1,0,0.2,0.1,0.3,0.2
	c0.1,0.1,0.2,0.3,0.2,0.5v0c0,0.2-0.1,0.4-0.2,0.5c-0.1,0.1-0.3,0.2-0.5,0.3l0.8,1h-0.5l-0.7-1h-0.7v1h-0.4L131.7,186L131.7,186z
	 M132.8,187.3c0.2,0,0.3,0,0.4-0.1c0.1-0.1,0.2-0.2,0.2-0.3v0c0-0.1-0.1-0.2-0.2-0.3c-0.1-0.1-0.3-0.1-0.4-0.1h-0.8v0.9
	C132.1,187.3,132.8,187.3,132.8,187.3z"/>
</svg>
