<?xml version="1.0" encoding="UTF-8"?>
<svg width="50px" height="50px" viewBox="0 0 50 50" version="1.1" xmlns="http://www.w3.org/2000/svg" xmlns:xlink="http://www.w3.org/1999/xlink">
    <!-- Generator: Sketch 43.1 (39012) - http://www.bohemiancoding.com/sketch -->
    <title>Artboard Copy 18</title>
    <desc>Created with Sketch.</desc>
    <defs></defs>
    <g id="Page-1" stroke="none" stroke-width="1" fill="none" fill-rule="evenodd">
        <g id="Artboard-Copy-18">
            <rect id="Rectangle-Copy-5" fill="#F39C12" x="0" y="0" width="50" height="50" rx="5"></rect>
            <path d="M9.32666016,23.0087891 C9.05094263,22.7854807 8.66471603,22.6738281 8.16796875,22.6738281 L6.20605469,22.6738281 L6.20605469,25.640625 L8.16796875,25.640625 C8.66471603,25.640625 9.05094263,25.519858 9.32666016,25.2783203 C9.60237768,25.0367826 9.74023438,24.653974 9.74023438,24.1298828 C9.74023438,23.6057917 9.60237768,23.2320975 9.32666016,23.0087891 Z M10.9228516,26.6386719 C10.3212861,27.1308618 9.46224517,27.3769531 8.34570312,27.3769531 L6.20605469,27.3769531 L6.20605469,31 L4.11425781,31 L4.11425781,20.9238281 L8.50292969,20.9238281 C9.5146535,20.9238281 10.3212861,21.1835912 10.9228516,21.703125 C11.5244171,22.2226588 11.8251953,23.0270128 11.8251953,24.1162109 C11.8251953,25.30567 11.5244171,26.1464819 10.9228516,26.6386719 Z M17.3862305,23.3745117 C17.4112957,23.3767904 17.467122,23.3802083 17.5537109,23.3847656 L17.5537109,25.3808594 C17.4306634,25.3671874 17.3212895,25.3580729 17.2255859,25.3535156 C17.1298823,25.3489583 17.0524092,25.3466797 16.9931641,25.3466797 C16.209306,25.3466797 15.6829441,25.6018855 15.4140625,26.1123047 C15.2636711,26.3994155 15.1884766,26.8414684 15.1884766,27.4384766 L15.1884766,31 L13.2265625,31 L13.2265625,23.5488281 L15.0859375,23.5488281 L15.0859375,24.8476562 C15.3867203,24.350909 15.6487619,24.0113941 15.8720703,23.8291016 C16.2366555,23.5237615 16.7106091,23.3710938 17.2939453,23.3710938 C17.3304038,23.3710938 17.3611652,23.3722331 17.3862305,23.3745117 Z M23.3505859,29.0175781 C23.655926,28.6119771 23.8085938,28.0354855 23.8085938,27.2880859 C23.8085938,26.5406864 23.655926,25.965334 23.3505859,25.5620117 C23.0452459,25.1586894 22.6077502,24.9570312 22.0380859,24.9570312 C21.4684216,24.9570312 21.0297867,25.1586894 20.722168,25.5620117 C20.4145492,25.965334 20.2607422,26.5406864 20.2607422,27.2880859 C20.2607422,28.0354855 20.4145492,28.6119771 20.722168,29.0175781 C21.0297867,29.4231791 21.4684216,29.6259766 22.0380859,29.6259766 C22.6077502,29.6259766 23.0452459,29.4231791 23.3505859,29.0175781 Z M24.9091797,30.0942383 C24.2802703,30.8712604 23.3255272,31.2597656 22.0449219,31.2597656 C20.7643165,31.2597656 19.8095735,30.8712604 19.1806641,30.0942383 C18.5517547,29.3172162 18.2373047,28.3818414 18.2373047,27.2880859 C18.2373047,26.2125597 18.5517547,25.2806029 19.1806641,24.4921875 C19.8095735,23.7037721 20.7643165,23.3095703 22.0449219,23.3095703 C23.3255272,23.3095703 24.2802703,23.7037721 24.9091797,24.4921875 C25.5380891,25.2806029 25.8525391,26.2125597 25.8525391,27.2880859 C25.8525391,28.3818414 25.5380891,29.3172162 24.9091797,30.0942383 Z M29.2363281,31 L27.2880859,31 L27.2880859,20.9238281 L29.2363281,20.9238281 L29.2363281,31 Z M35.7919922,29.0175781 C36.0973323,28.6119771 36.25,28.0354855 36.25,27.2880859 C36.25,26.5406864 36.0973323,25.965334 35.7919922,25.5620117 C35.4866521,25.1586894 35.0491565,24.9570312 34.4794922,24.9570312 C33.9098279,24.9570312 33.4711929,25.1586894 33.1635742,25.5620117 C32.8559555,25.965334 32.7021484,26.5406864 32.7021484,27.2880859 C32.7021484,28.0354855 32.8559555,28.6119771 33.1635742,29.0175781 C33.4711929,29.4231791 33.9098279,29.6259766 34.4794922,29.6259766 C35.0491565,29.6259766 35.4866521,29.4231791 35.7919922,29.0175781 Z M37.3505859,30.0942383 C36.7216765,30.8712604 35.7669335,31.2597656 34.4863281,31.2597656 C33.2057228,31.2597656 32.2509797,30.8712604 31.6220703,30.0942383 C30.9931609,29.3172162 30.6787109,28.3818414 30.6787109,27.2880859 C30.6787109,26.2125597 30.9931609,25.2806029 31.6220703,24.4921875 C32.2509797,23.7037721 33.2057228,23.3095703 34.4863281,23.3095703 C35.7669335,23.3095703 36.7216765,23.7037721 37.3505859,24.4921875 C37.9794953,25.2806029 38.2939453,26.2125597 38.2939453,27.2880859 C38.2939453,28.3818414 37.9794953,29.3172162 37.3505859,30.0942383 Z M44.0429688,28.8842773 C44.3574234,28.5402001 44.5146484,27.9921913 44.5146484,27.2402344 C44.5146484,26.5338506 44.3653986,25.9960956 44.0668945,25.6269531 C43.7683904,25.2578107 43.3684921,25.0732422 42.8671875,25.0732422 C42.1835903,25.0732422 41.7119154,25.394528 41.4521484,26.0371094 C41.315429,26.378908 41.2470703,26.8004532 41.2470703,27.3017578 C41.2470703,27.7347027 41.3199862,28.11979 41.4658203,28.4570312 C41.7301446,29.0859406 42.2040981,29.4003906 42.8876953,29.4003906 C43.3434268,29.4003906 43.7285141,29.2283546 44.0429688,28.8842773 Z M43.3798828,23.5419922 C43.8538435,23.7379567 44.2366522,24.0979792 44.5283203,24.6220703 L44.5283203,23.5488281 L46.421875,23.5488281 L46.421875,30.6171875 C46.421875,31.5787808 46.2600928,32.303383 45.9365234,32.7910156 C45.3805311,33.6295615 44.3141355,34.0488281 42.7373047,34.0488281 C41.784826,34.0488281 41.0078155,33.861981 40.40625,33.4882812 C39.8046845,33.1145815 39.4720055,32.5563188 39.4082031,31.8134766 L41.5273438,31.8134766 C41.5820315,32.0413423 41.6708978,32.2054031 41.7939453,32.3056641 C42.0035818,32.4833993 42.3567683,32.5722656 42.8535156,32.5722656 C43.5553421,32.5722656 44.0247384,32.3375675 44.2617188,31.8681641 C44.4166674,31.5673813 44.4941406,31.061527 44.4941406,30.3505859 L44.4941406,29.8720703 C44.3072907,30.1910823 44.1067719,30.4303377 43.8925781,30.5898438 C43.5052064,30.8860692 43.0016307,31.0341797 42.3818359,31.0341797 C41.4247999,31.0341797 40.6603219,30.6980828 40.0883789,30.0258789 C39.5164359,29.353675 39.2304688,28.4433651 39.2304688,27.2949219 C39.2304688,26.1874945 39.5061821,25.2566769 40.0576172,24.5024414 C40.6090522,23.7482059 41.3906199,23.3710938 42.4023438,23.3710938 C42.7760435,23.3710938 43.1018866,23.4280593 43.3798828,23.5419922 Z" id="Prolog" fill="#FFFFFF"></path>
        </g>
    </g>
</svg>