<svg id="Layer_1" xmlns="http://www.w3.org/2000/svg" viewBox="-146 226 50 50"><style>.st0{fill:url(#SVGID_1_)}.st1{fill:url(#SVGID_2_)}</style><linearGradient id="SVGID_1_" gradientUnits="userSpaceOnUse" x1="-1349.383" y1="-1082.521" x2="-1358.777" y2="-1073.127" gradientTransform="translate(6942.91 5873.318) scale(5.2166)"><stop offset="0" stop-color="#ffaa2a"/><stop offset="1" stop-color="#ffc06c"/></linearGradient><path class="st0" d="M-146 226.5h50v49h-50v-49z"/><linearGradient id="SVGID_2_" gradientUnits="userSpaceOnUse" x1="-1354.12" y1="-1081.749" x2="-1354.12" y2="-1073.856" gradientTransform="translate(6942.91 5873.318) scale(5.2166)"><stop offset="0" stop-color="#251200"/><stop offset="1"/></linearGradient><path class="st1" d="M-127.8 251.4h4.4l-2.2-8.6-2.2 8.6zm-14.4-21v41.3h42.5v-41.3h-42.5zm21.3 30.5l-1.6-5.6h-6l-1.6 5.6h-4.1l5.8-19.7V239h5.5l6.6 21.9h-4.6zm10.9 0h-4.4v-16.7h4.4v16.7zm-2.2-18.7c-1.3 0-2.3-1-2.3-2.3 0-1.3 1-2.3 2.3-2.3s2.3 1 2.3 2.3c0 1.3-1 2.3-2.3 2.3z"/></svg>