<?xml version="1.0" encoding="UTF-8"?>
<svg width="50px" height="50px" viewBox="0 0 50 50" version="1.1" xmlns="http://www.w3.org/2000/svg" xmlns:xlink="http://www.w3.org/1999/xlink">
    <!-- Generator: Sketch 43.1 (39012) - http://www.bohemiancoding.com/sketch -->
    <title>Artboard Copy 8</title>
    <desc>Created with Sketch.</desc>
    <defs></defs>
    <g id="Page-1" stroke="none" stroke-width="1" fill="none" fill-rule="evenodd">
        <g id="Artboard-Copy-8">
            <rect id="Rectangle-Copy-2" fill="#27AE60" x="0" y="0" width="50" height="50" rx="5"></rect>
            <path d="M11.7519531,23 L11.7519531,15.8027344 L13.2412109,15.8027344 L13.2412109,18.546875 L16.0537109,18.546875 L16.0537109,15.8027344 L17.5478516,15.8027344 L17.5478516,23 L16.0537109,23 L16.0537109,19.7871094 L13.2412109,19.7871094 L13.2412109,23 L11.7519531,23 Z M20.2211914,18.9863281 C20.0437817,19.1881521 19.9322919,19.4615868 19.8867188,19.8066406 L22.0498047,19.8066406 C22.0270181,19.4388002 21.9155283,19.1596689 21.715332,18.9692383 C21.5151357,18.7788076 21.2669286,18.6835938 20.9707031,18.6835938 C20.6484359,18.6835938 20.3986011,18.7845042 20.2211914,18.9863281 Z M22.1669922,17.7851562 C22.5218117,17.9511727 22.8147775,18.2132144 23.0458984,18.5712891 C23.2542328,18.8870458 23.3893226,19.2532531 23.4511719,19.6699219 C23.4869793,19.9140637 23.5016276,20.2656227 23.4951172,20.7246094 L19.8525391,20.7246094 C19.8720704,21.2584662 20.039712,21.6328114 20.3554688,21.8476562 C20.547527,21.9811205 20.7786445,22.0478516 21.0488281,22.0478516 C21.3352879,22.0478516 21.568033,21.9664722 21.7470703,21.8037109 C21.8447271,21.7158199 21.9309892,21.5937508 22.0058594,21.4375 L23.4267578,21.4375 C23.3909503,21.7532568 23.226564,22.0738916 22.9335938,22.3994141 C22.4778623,22.9169948 21.8398479,23.1757812 21.0195312,23.1757812 C20.3424445,23.1757812 19.7451198,22.9576845 19.2275391,22.5214844 C18.7099583,22.0852843 18.4511719,21.375656 18.4511719,20.3925781 C18.4511719,19.4713496 18.6847307,18.7649764 19.1518555,18.2734375 C19.6189802,17.7818986 20.2252567,17.5361328 20.9707031,17.5361328 C21.4134137,17.5361328 21.8121727,17.6191398 22.1669922,17.7851562 Z M25.8535156,23 L24.4619141,23 L24.4619141,15.8027344 L25.8535156,15.8027344 L25.8535156,23 Z M28.6318359,23 L27.2402344,23 L27.2402344,15.8027344 L28.6318359,15.8027344 L28.6318359,23 Z M33.3144531,21.5839844 C33.5325532,21.2942694 33.6416016,20.8824896 33.6416016,20.3486328 C33.6416016,19.814776 33.5325532,19.40381 33.3144531,19.1157227 C33.0963531,18.8276353 32.7838562,18.6835938 32.3769531,18.6835938 C31.97005,18.6835938 31.6567394,18.8276353 31.4370117,19.1157227 C31.2172841,19.40381 31.1074219,19.814776 31.1074219,20.3486328 C31.1074219,20.8824896 31.2172841,21.2942694 31.4370117,21.5839844 C31.6567394,21.8736994 31.97005,22.0185547 32.3769531,22.0185547 C32.7838562,22.0185547 33.0963531,21.8736994 33.3144531,21.5839844 Z M34.4277344,22.3530273 C33.9785134,22.9080431 33.2965541,23.1855469 32.3818359,23.1855469 C31.4671178,23.1855469 30.7851585,22.9080431 30.3359375,22.3530273 C29.8867165,21.7980115 29.6621094,21.1298867 29.6621094,20.3486328 C29.6621094,19.5803998 29.8867165,18.9147164 30.3359375,18.3515625 C30.7851585,17.7884086 31.4671178,17.5068359 32.3818359,17.5068359 C33.2965541,17.5068359 33.9785134,17.7884086 34.4277344,18.3515625 C34.8769554,18.9147164 35.1015625,19.5803998 35.1015625,20.3486328 C35.1015625,21.1298867 34.8769554,21.7980115 34.4277344,22.3530273 Z M36.0244141,24.1572266 C36.3043634,24.0791012 36.5102532,23.9488941 36.6420898,23.7666016 C36.7739264,23.584309 36.8496093,23.3287777 36.8691406,23 L36.0244141,23 L36.0244141,21.5449219 L37.5283203,21.5449219 L37.5283203,22.8046875 C37.5283203,23.0260428 37.4990237,23.2571603 37.4404297,23.4980469 C37.3818356,23.7389335 37.2727873,23.9472647 37.1132812,24.1230469 C36.9407543,24.3118499 36.7381197,24.4542638 36.5053711,24.550293 C36.2726225,24.6463221 36.1123051,24.6943359 36.0244141,24.6943359 L36.0244141,24.1572266 Z M12.7431641,27.8027344 L13.6953125,31.9238281 L13.9003906,33.0712891 L14.1103516,31.9482422 L14.9208984,27.8027344 L16.5078125,27.8027344 L17.3623047,31.9238281 L17.5820312,33.0712891 L17.8017578,31.9677734 L18.7636719,27.8027344 L20.2919922,27.8027344 L18.265625,35 L16.8300781,35 L15.9609375,30.7910156 L15.7070312,29.3994141 L15.453125,30.7910156 L14.5839844,35 L13.1875,35 L11.1464844,27.8027344 L12.7431641,27.8027344 Z M24.4130859,33.5839844 C24.631186,33.2942694 24.7402344,32.8824896 24.7402344,32.3486328 C24.7402344,31.814776 24.631186,31.40381 24.4130859,31.1157227 C24.1949859,30.8276353 23.882489,30.6835938 23.4755859,30.6835938 C23.0686829,30.6835938 22.7553722,30.8276353 22.5356445,31.1157227 C22.3159169,31.40381 22.2060547,31.814776 22.2060547,32.3486328 C22.2060547,32.8824896 22.3159169,33.2942694 22.5356445,33.5839844 C22.7553722,33.8736994 23.0686829,34.0185547 23.4755859,34.0185547 C23.882489,34.0185547 24.1949859,33.8736994 24.4130859,33.5839844 Z M25.5263672,34.3530273 C25.0771462,34.9080431 24.3951869,35.1855469 23.4804688,35.1855469 C22.5657506,35.1855469 21.8837913,34.9080431 21.4345703,34.3530273 C20.9853493,33.7980115 20.7607422,33.1298867 20.7607422,32.3486328 C20.7607422,31.5803998 20.9853493,30.9147164 21.4345703,30.3515625 C21.8837913,29.7884086 22.5657506,29.5068359 23.4804688,29.5068359 C24.3951869,29.5068359 25.0771462,29.7884086 25.5263672,30.3515625 C25.9755882,30.9147164 26.2001953,31.5803998 26.2001953,32.3486328 C26.2001953,33.1298867 25.9755882,33.7980115 25.5263672,34.3530273 Z M30.152832,29.5532227 C30.1707358,29.5548503 30.2106117,29.5572917 30.2724609,29.5605469 L30.2724609,30.9863281 C30.1845699,30.9765625 30.1064457,30.9700521 30.0380859,30.9667969 C29.9697262,30.9635417 29.9143882,30.9619141 29.8720703,30.9619141 C29.3121717,30.9619141 28.9361989,31.1442039 28.7441406,31.5087891 C28.6367182,31.7138682 28.5830078,32.0296203 28.5830078,32.4560547 L28.5830078,35 L27.1816406,35 L27.1816406,29.6777344 L28.5097656,29.6777344 L28.5097656,30.6054688 C28.7246104,30.2506493 28.9117831,30.0081387 29.0712891,29.8779297 C29.331707,29.6598296 29.6702453,29.5507812 30.0869141,29.5507812 C30.1129559,29.5507812 30.1349283,29.551595 30.152832,29.5532227 Z M32.5087891,35 L31.1171875,35 L31.1171875,27.8027344 L32.5087891,27.8027344 L32.5087891,35 Z M36.6884766,29.7631836 C36.9391289,29.9047859 37.1425773,30.1009102 37.2988281,30.3515625 L37.2988281,27.8125 L38.7099609,27.8125 L38.7099609,35 L37.3574219,35 L37.3574219,34.2626953 C37.1588532,34.5784521 36.9326185,34.807942 36.6787109,34.9511719 C36.4248034,35.0944018 36.1090514,35.1660156 35.7314453,35.1660156 C35.1096974,35.1660156 34.5864279,34.9145533 34.1616211,34.4116211 C33.7368143,33.9086889 33.5244141,33.2633503 33.5244141,32.4755859 C33.5244141,31.5673783 33.7335591,30.8528672 34.1518555,30.3320312 C34.5701518,29.8111953 35.1292283,29.5507812 35.8291016,29.5507812 C36.1513688,29.5507812 36.4378243,29.6215813 36.6884766,29.7631836 Z M37.0302734,33.5546875 C37.2353526,33.2617173 37.3378906,32.8824893 37.3378906,32.4169922 C37.3378906,31.7659473 37.1735042,31.3004571 36.8447266,31.0205078 C36.6429026,30.8512361 36.40853,30.7666016 36.1416016,30.7666016 C35.7346985,30.7666016 35.4360361,30.9204086 35.2456055,31.2280273 C35.0551748,31.5356461 34.9599609,31.9173154 34.9599609,32.3730469 C34.9599609,32.8645858 35.0568024,33.2576483 35.2504883,33.5522461 C35.4441741,33.8468439 35.7379538,33.9941406 36.1318359,33.9941406 C36.5257181,33.9941406 36.8251943,33.8476577 37.0302734,33.5546875 Z" id="Hello,-World" fill="#FFFFFF"></path>
        </g>
    </g>
</svg>